<?xml version="1.0" encoding="utf-8"?>
<!-- Svg Vector Icons : http://www.onlinewebfonts.com/icon -->
<!DOCTYPE svg PUBLIC "-//W3C//DTD SVG 1.1//EN" "http://www.w3.org/Graphics/SVG/1.1/DTD/svg11.dtd">
<svg version="1.1" xmlns="http://www.w3.org/2000/svg" xmlns:xlink="http://www.w3.org/1999/xlink" x="0px" y="0px" viewBox="0 0 1000 1000" enable-background="new 0 0 1000 1000" xml:space="preserve">
<metadata> Svg Vector Icons : http://www.onlinewebfonts.com/icon </metadata>
<g><g id="_x35_151e0c8492e5103c096af88a51f0aa3"><path d="M231.3,300.3l-46.1-26.4c-2.9-1.7-4.7-4.8-4.7-8.1v-56.2c0-3.3-1.8-6.5-4.7-8.1l-19.6-11.3c-1.4-0.9-3.1-1.3-4.7-1.3c-1.6,0-3.2,0.4-4.7,1.3l-19.6,11.3c-2.9,1.7-4.7,4.8-4.7,8.1v56.2c0,3.3-1.8,6.4-4.7,8.1l-46.1,26.4c-1.4,0.9-3.2,0.9-4.7,0c-1.5-0.8-2.3-2.4-2.3-4L64.4,176c0-3.4,1.8-6.5,4.7-8.1l77.6-44.7c1.3-0.8,2.8-1.2,4.3-1.2c0.1,0,0.7,0,0.8,0c1.5,0.1,3,0.5,4.3,1.2l77.6,44.7c2.9,1.7,4.7,4.8,4.7,8.1l-0.1,120.3c0,1.7-0.9,3.2-2.3,4C234.5,301.2,232.7,301.2,231.3,300.3z M530,268.1v-89.7c0-3.4,1.8-6.4,4.7-8.1l77.7-44.8c2.9-1.7,6.5-1.7,9.4,0l19.4,11.2c1,0.6,2.3,0.6,3.3,0c1-0.6,1.6-1.7,1.6-2.8V14.7c0-1.7,0.9-3.2,2.3-4c1.4-0.8,3.2-0.9,4.7,0l46.2,25.8c3,1.7,4.8,4.8,4.8,8.2v223.5c0,3.4-1.8,6.4-4.7,8.1l-77.7,44.9c-2.9,1.7-6.5,1.7-9.4,0l-77.7-44.9C531.7,274.5,530,271.4,530,268.1z M587.8,238.6c0,0.8,0.4,1.6,1.2,2l26.7,15.4c0.7,0.4,1.6,0.4,2.3,0l26.7-15.4c0.7-0.4,1.2-1.2,1.2-2v-30.8c0-0.8-0.4-1.6-1.2-2L618,190.4c-0.7-0.4-1.6-0.4-2.4,0L589,205.8c-0.7,0.4-1.2,1.2-1.2,2V238.6z M930.9,169.1l-77.2-44.8c-2.9-1.7-6.5-1.7-9.4,0l-77.6,44.8c-2.9,1.7-4.7,4.8-4.7,8.1v89.6c0,3.4,1.8,6.5,4.7,8.2l77.2,44c2.8,1.6,6.3,1.6,9.2,0.1l46.7-25.9c1.5-0.8,2.4-2.4,2.4-4.1c0-1.7-0.9-3.3-2.4-4.1l-78.1-44.8c-1.5-0.8-2.4-2.4-2.4-4.1v-28.1c0-1.7,0.9-3.2,2.3-4.1l24.3-14c1.4-0.8,3.2-0.8,4.7,0l24.3,14c1.5,0.8,2.3,2.4,2.3,4.1V230c0,1.7,0.9,3.2,2.4,4.1c1.5,0.8,3.2,0.8,4.7,0l46.5-27c2.9-1.7,4.7-4.8,4.7-8.1v-21.7C935.6,173.8,933.8,170.8,930.9,169.1z M302,274.5l77.6,44.9c2.9,1.7,6.5,1.7,9.4,0l77.7-44.9c2.9-1.7,4.7-4.8,4.7-8.1v-89.7c0-3.3-1.8-6.5-4.7-8.1l-77.7-44.8c-2.9-1.7-6.5-1.7-9.4,0L302,168.6c-2.9,1.7-4.7,4.8-4.7,8.1v89.7C297.4,269.8,299.1,272.9,302,274.5z M764.6,481.4L525.1,343.1c-15-8.6-35.2-8.6-50.3,0L235.4,481.4c-15.5,8.9-25.1,25.7-25.1,43.6v276.3c0,17.9,9.6,34.7,25.1,43.7l62.8,36.2c30.4,15,41.3,15,55.2,15c45,0,70.9-27.2,70.9-74.7V548.7c0-3.9-3.1-6.9-6.9-6.9h-30.4c-3.9,0-7,3-7,6.9v272.8c0,21.1-21.8,42-57.4,24.2L257,807.8c-2.3-1.3-3.8-3.7-3.8-6.4V525.1c0-2.6,1.5-5.2,3.8-6.6l239.3-138.1c2.2-1.3,5.2-1.3,7.4,0L743,518.5c2.3,1.4,3.7,3.9,3.7,6.6v276.3c0,2.7-1.4,5.2-3.7,6.5L503.6,946c-2,1.2-5.2,1.2-7.4,0l-61.4-36.5c-1.8-1.1-4.2-1.4-5.9-0.4c-17,9.6-20.2,10.9-36.1,16.4c-3.9,1.4-9.8,3.7,2.2,10.4l79.9,47.3c7.7,4.4,16.4,6.7,25.1,6.7c8.9,0,17.6-2.3,25.2-6.7L764.6,845c15.5-9,25.2-25.7,25.2-43.7V525.1C789.7,507.1,780.1,490.4,764.6,481.4z M583.3,775c-71.4,0-87.2-18-92.4-53.5c-0.6-3.8-3.9-6.6-7.8-6.6h-34.9c-4.3,0-7.8,3.5-7.8,7.8c0,45.5,24.7,99.7,142.9,99.7c85.5,0,134.6-33.7,134.6-92.5c0-58.3-39.4-73.8-122.4-84.8c-83.8-11.1-92.4-16.8-92.4-36.5c0-16.2,7.2-37.8,69.3-37.8c55.5,0,75.9,11.9,84.3,49.3c0.7,3.5,3.9,6.1,7.6,6.1h35c2.2,0,4.2-0.9,5.7-2.5c1.5-1.6,2.3-3.8,2.1-6c-5.4-64.4-48.2-94.4-134.7-94.4c-77,0-122.9,32.5-122.9,86.9c0,59.1,45.7,75.4,119.5,82.7c88.4,8.7,95.3,21.6,95.3,39C664.4,762.2,640.2,775,583.3,775z M849.7,202.8c-0.6-0.3-1.2-0.3-1.8,0l-14.9,8.6c-0.6,0.3-0.9,0.9-0.9,1.6v17.2c0,0.6,0.3,1.2,0.9,1.6l14.9,8.6c0.5,0.3,1.2,0.3,1.8,0l14.9-8.6c0.6-0.3,0.9-0.9,0.9-1.6V213c0-0.6-0.3-1.2-0.9-1.6L849.7,202.8z"/></g></g>
</svg>